<?xml version="1.0" standalone="no"?>
<!DOCTYPE svg PUBLIC "-//W3C//DTD SVG 20010904//EN"
 "http://www.w3.org/TR/2001/REC-SVG-20010904/DTD/svg10.dtd">
<svg version="1.0" xmlns="http://www.w3.org/2000/svg"
 width="2000.000000pt" height="531.000000pt" viewBox="0 0 2000.000000 531.000000"
 preserveAspectRatio="xMidYMid meet">

<g transform="translate(0.000000,531.000000) scale(0.100000,-0.100000)"
fill="#000000" stroke="none">
<path d="M17875 5254 c-278 -40 -470 -107 -660 -233 -96 -63 -239 -208 -308
-312 -186 -280 -267 -590 -267 -1019 0 -269 28 -466 96 -670 153 -460 486
-761 949 -860 130 -27 407 -38 555 -21 322 38 577 155 781 360 146 147 240
299 314 511 144 415 135 1009 -21 1413 -171 444 -480 709 -939 807 -76 16
-145 22 -285 25 -102 2 -198 1 -215 -1z m345 -500 c41 -9 113 -34 160 -56 69
-33 100 -56 170 -127 93 -94 144 -172 191 -296 68 -175 99 -367 99 -610 0
-643 -250 -1022 -704 -1063 -262 -25 -461 42 -626 207 -72 73 -94 102 -138
191 -85 171 -123 336 -137 590 -8 145 7 354 34 485 111 525 465 778 951 679z"/>
<path d="M8860 5073 c-202 -524 -487 -981 -949 -1523 l-140 -165 -1 -292 0
-293 785 0 785 0 0 -305 0 -305 290 0 290 0 0 305 0 305 200 0 200 0 0 235 0
235 -200 0 -200 0 -2 968 -3 967 -501 3 -501 2 -53 -137z m480 -1033 l0 -770
-500 0 c-497 0 -500 0 -500 20 0 12 48 77 108 149 248 292 440 563 595 838 56
99 193 373 233 466 20 47 34 67 46 67 17 0 18 -39 18 -770z"/>
<path d="M390 3695 l0 -1505 290 0 290 0 0 536 0 535 358 -3 c386 -5 413 -8
531 -65 100 -48 199 -171 247 -305 8 -24 46 -173 85 -333 38 -159 74 -307 80
-327 l10 -38 314 0 c232 0 315 3 315 12 0 6 -50 183 -110 392 -123 423 -175
551 -268 662 -93 113 -252 196 -429 226 -70 11 -73 13 -73 40 0 21 6 29 23 32
148 31 195 43 276 72 195 69 336 185 410 336 63 128 76 190 76 358 -1 121 -4
159 -23 225 -103 360 -428 579 -948 640 -102 12 -265 15 -791 15 l-663 0 0
-1505z m1417 1027 c266 -59 396 -202 410 -452 13 -228 -70 -386 -247 -473
-151 -74 -253 -87 -677 -87 l-323 0 0 521 0 521 373 -5 c326 -4 383 -7 464
-25z"/>
<path d="M3450 3695 l0 -1505 280 0 280 0 0 133 c0 72 -7 517 -15 987 -8 470
-15 935 -15 1033 0 166 1 177 19 177 14 0 214 -303 772 -1165 l754 -1165 343
0 342 0 0 1505 0 1505 -281 0 -282 0 7 -282 c3 -156 11 -587 16 -958 5 -371
12 -748 15 -837 l5 -163 -23 0 c-18 1 -141 186 -742 1120 l-720 1120 -377 0
-378 0 0 -1505z"/>
<path d="M10790 3695 l0 -1505 290 0 290 0 0 434 0 433 338 6 c356 7 491 19
662 61 457 113 713 359 802 771 20 93 17 391 -5 493 -79 368 -294 605 -657
726 -242 80 -314 86 -1077 86 l-643 0 0 -1505z m1400 1021 c215 -56 347 -186
395 -387 9 -39 15 -113 15 -190 0 -327 -124 -502 -415 -581 -74 -20 -108 -22
-447 -26 l-368 -4 0 607 0 606 378 -4 c313 -3 388 -7 442 -21z"/>
<path d="M13700 3696 l0 -1506 285 0 285 0 0 536 0 536 363 -4 c344 -4 365 -5
432 -27 163 -53 262 -146 328 -308 14 -34 62 -212 107 -397 l82 -336 318 0
317 0 -93 328 c-109 379 -135 461 -180 559 -103 228 -261 349 -524 402 -80 16
-85 18 -88 44 -3 21 1 27 20 31 379 71 587 196 696 421 55 112 67 173 67 350
-1 155 -2 163 -33 254 -111 319 -370 505 -827 593 -104 20 -148 21 -832 25
l-723 4 0 -1505z m1405 1027 c227 -51 357 -163 400 -344 17 -76 19 -207 4
-281 -45 -212 -210 -336 -504 -378 -38 -5 -220 -10 -402 -10 l-333 0 0 521 0
521 373 -5 c324 -4 384 -7 462 -24z"/>
<path d="M14478 623 l-1948 -3 0 -285 0 -285 3050 0 3050 0 0 290 0 290 -1102
-2 c-607 -2 -1979 -4 -3050 -5z"/>
<path d="M18970 340 l0 -290 420 0 420 0 0 290 0 290 -420 0 -420 0 0 -290z"/>
</g>
</svg>
